<?xml version="1.0" encoding="utf-8"?>
<!-- Generator: Adobe Illustrator 23.1.1, SVG Export Plug-In . SVG Version: 6.00 Build 0)  -->
<svg version="1.1" id="Layer_1" xmlns="http://www.w3.org/2000/svg" xmlns:xlink="http://www.w3.org/1999/xlink" x="0px" y="0px"
	 viewBox="0 0 1000 1000" style="enable-background:new 0 0 1000 1000;" xml:space="preserve">
<style type="text/css">
	.st0{fill:#225CA7;}
	.st1{fill:#FFCC04;}
	.st2{fill:#43AE69;}
	.st3{fill:#F26C3F;}
	.st4{fill:#00AFCF;}
	.st5{fill:#B31F7F;}
	.st6{fill:#D52553;}
	.st7{fill:#B21F7D;}
</style>
<g>
	<path class="st0" d="M266.8,729.7c-0.3,1.8-0.9,3.5-1.8,5c-0.9,1.5-2,2.8-3.3,3.8c-1.3,1.1-2.8,1.9-4.6,2.5
		c-1.7,0.6-3.6,0.9-5.7,0.9c-2.9,0-5.4-0.4-7.4-1.3c-2-0.9-3.6-2-4.7-3.3c-1.2-1.4-2-2.9-2.5-4.5c-0.5-1.6-0.7-3.3-0.7-4.9
		c0-1.7,0.2-3.3,0.7-5c0.5-1.7,1.2-3.2,2.2-4.6c0.7,0.4,1.3,0.7,1.9,1c0.6,0.3,1.2,0.6,1.9,1.1c-0.7,1.2-1.2,2.4-1.6,3.7
		c-0.4,1.3-0.5,2.5-0.5,3.8c0,1,0.2,2,0.5,3.1c0.3,1.1,0.9,2.1,1.7,3.1c0.8,1,2,1.7,3.4,2.4c1.4,0.6,3.3,1,5.5,1
		c1.4,0,2.8-0.2,4.1-0.6c1.3-0.4,2.5-1,3.5-1.9c1-0.8,1.8-1.9,2.4-3.2c0.6-1.3,0.9-2.9,0.9-4.7v-18.3h4.3v7.9c1-2,2.1-3.7,3.3-5.1
		c1.2-1.4,2.4-2.5,3.6-3.3c1.2-0.8,2.5-1.4,3.8-1.7c1.3-0.4,2.6-0.5,3.8-0.5c2,0,3.8,0.4,5.4,1.1c1.6,0.7,2.9,1.7,3.9,2.9
		c1.1,1.2,1.9,2.7,2.4,4.4c0.5,1.7,0.8,3.5,0.8,5.4v9.8H266.8z M289.5,720.5c0-1.9-0.2-3.5-0.7-4.8c-0.4-1.3-1-2.3-1.8-3.1
		c-0.8-0.8-1.7-1.3-2.8-1.6c-1.1-0.3-2.2-0.5-3.5-0.5c-1.5,0-3,0.3-4.6,1c-1.5,0.7-2.9,1.7-4.2,3c-1.3,1.3-2.4,2.8-3.3,4.6
		c-0.9,1.8-1.5,3.8-1.7,6.1h22.5V720.5z M277.8,698.3c0-0.7,0.3-1.3,0.8-1.8c0.5-0.5,1.1-0.8,1.8-0.8c0.7,0,1.3,0.3,1.8,0.8
		c0.5,0.5,0.7,1.1,0.7,1.8s-0.2,1.3-0.7,1.8c-0.5,0.5-1.1,0.7-1.8,0.7c-0.7,0-1.3-0.2-1.8-0.7C278.1,699.6,277.8,699,277.8,698.3"/>
	<path class="st0" d="M302.3,697.6h4.4v27.7H356c0.8,0,1.3,0.3,1.3,1v2.2c0,0.9-0.4,1.3-1.3,1.3h-53.7V697.6z"/>
	<path class="st0" d="M355.3,729.7c-0.8,0-46.3-0.3-46.3-1v-2.2c0-0.9,45.5-1.3,46.3-1.3h9.7v-16.4h4.4v20.9H355.3z M357,738.5
		c0-0.7,0.2-1.3,0.7-1.8c0.5-0.5,1.1-0.7,1.8-0.7c0.7,0,1.3,0.2,1.8,0.7c0.5,0.5,0.7,1.1,0.7,1.8c0,0.7-0.2,1.3-0.7,1.8
		c-0.5,0.5-1.1,0.7-1.8,0.7c-0.7,0-1.3-0.2-1.8-0.7C357.2,739.8,357,739.2,357,738.5 M364.3,738.5c0-0.7,0.2-1.3,0.7-1.8
		c0.5-0.5,1.1-0.7,1.8-0.7c0.7,0,1.3,0.2,1.8,0.7c0.5,0.5,0.7,1.1,0.7,1.8c0,0.7-0.2,1.3-0.7,1.8c-0.5,0.5-1.1,0.7-1.8,0.7
		c-0.7,0-1.3-0.2-1.8-0.7C364.5,739.8,364.3,739.2,364.3,738.5"/>
	<path class="st0" d="M396.2,725.2c0.8,0,60.3,0.3,60.3,1v2.2c0,0.9-59.5,1.3-60.3,1.3h-1c-0.6,0-1.3,0-1.9-0.1
		c-0.6-0.1-1.2-0.2-1.8-0.5c-0.6-0.3-1.1-0.7-1.6-1.2c-0.5-0.5-0.9-1.2-1.2-2.1v4.2c0,1.6-0.2,3-0.6,4.4c-0.4,1.4-1,2.6-1.9,3.6
		c-0.8,1-1.8,1.8-3.1,2.4c-1.2,0.6-2.6,0.9-4.2,0.9c-0.9,0-1.6,0-2.4-0.1c-0.7-0.1-1.3-0.1-1.7-0.2l0.5-4.4l1.3,0.2
		c0.4,0.1,0.7,0.1,1.1,0.1c0.4,0,0.8,0,1.1,0c2.1,0,3.5-0.6,4.3-1.9c0.8-1.2,1.1-3.1,1.1-5.6v-20.6h4.3v9.9c0,0.9,0.1,1.8,0.3,2.6
		c0.2,0.8,0.6,1.5,1,2c0.5,0.6,1.1,1,1.9,1.4c0.8,0.3,1.8,0.5,3,0.5H396.2z"/>
	<path class="st0" d="M395.5,729.7c-0.8,0-1.3-0.3-1.3-1v-2.2c0-0.9,0.4-1.3,1.3-1.3h66.1v-27.7h4.4v32.1H395.5z"/>
	<rect x="474.7" y="697.6" class="st0" width="4.2" height="32.1"/>
	<path class="st0" d="M535.9,725.2c0.8,0,40.5,0.3,40.5,1v2.1c0,0.9-39.7,1.3-40.5,1.3h-1.4c-0.7,0-1.5-0.1-2.2-0.2
		c-0.8-0.1-1.5-0.4-2.1-0.7c-0.6-0.3-1.2-0.8-1.8-1.5c-0.5-0.6-1-1.4-1.3-2.4c-0.6,1.1-1.4,1.9-2.2,2.5c-0.8,0.6-1.6,1.1-2.6,1.4
		c-0.9,0.3-1.9,0.6-3,0.7c-1.1,0.1-2.2,0.2-3.4,0.2h-12.8c-1.7,0-2.9,0.4-3.7,1.3c-0.8,0.9-1.2,2.5-1.2,4.9v13.2H494v-14.8
		c0-3,0.8-5.3,2.4-6.8c1.6-1.6,3.7-2.3,6.3-2.3h3.2v-6.9c0-1.5,0.3-3,0.7-4.5c0.5-1.5,1.2-2.8,2.2-3.9c1-1.1,2.2-2.1,3.5-2.8
		c1.4-0.7,3-1,4.7-1c1.7,0,3.3,0.3,4.7,0.9c1.4,0.6,2.5,1.4,3.5,2.5c1,1,1.7,2.3,2.2,3.7c0.5,1.4,0.8,3,0.8,4.7v1.6
		c0,0.4,0,0.9,0.1,1.5c0.1,0.7,0.3,1.3,0.8,1.9c0.4,0.6,1,1.2,1.9,1.7c0.8,0.5,2,0.7,3.4,0.7H535.9z M517.4,710.3
		c-1,0-1.9,0.1-2.7,0.4c-0.8,0.3-1.6,0.8-2.2,1.5c-0.6,0.7-1.1,1.6-1.5,2.6c-0.4,1.1-0.5,2.4-0.5,4v6.2h6.6c1.3,0,2.4-0.1,3.3-0.3
		c0.9-0.2,1.6-0.6,2.1-1.1c0.5-0.5,0.9-1.3,1.1-2.2c0.2-0.9,0.3-2.1,0.3-3.5c0-2.4-0.6-4.3-1.7-5.6
		C521.1,711,519.4,710.3,517.4,710.3"/>
	<path class="st0" d="M535.1,729.7c-0.8,0-1.3-0.3-1.3-1v-2.2c0-0.9,0.4-1.3,1.3-1.3h48.2c1.4,0,2.2-0.4,2.7-1.1
		c0.4-0.8,0.6-1.8,0.6-3v-6.8h4.4v4.5c0,0.9,0.1,1.8,0.3,2.6c0.2,0.8,0.5,1.5,1,2c0.5,0.6,1.1,1,2,1.4c0.8,0.3,1.8,0.5,3,0.5h1.4
		c1.4,0,2.3-0.4,2.7-1.1c0.4-0.7,0.6-1.8,0.6-3.1v-9.1h4.4v6.8c0,0.9,0.1,1.8,0.3,2.6c0.2,0.8,0.5,1.5,1,2c0.5,0.6,1.1,1,1.9,1.4
		c0.8,0.3,1.8,0.5,2.9,0.5h4.6v-16.4h4.4v20.9h-9.1c-1.6,0-2.9-0.3-4.1-0.8c-1.1-0.5-2-1.7-2.5-3.5c-0.4,0.9-0.8,1.6-1.2,2.2
		c-0.5,0.6-1,1-1.6,1.3c-0.6,0.3-1.2,0.5-1.9,0.6c-0.7,0.1-1.4,0.2-2.1,0.2h-1.9c-1.7,0-3-0.3-4.1-0.9c-1.1-0.6-1.9-1.7-2.6-3.4
		c-0.7,1.6-1.7,2.7-2.9,3.3c-1.2,0.7-2.6,1-4.2,1H535.1z"/>
	<path class="st0" d="M745.2,725.2c0.8,0,1.2,0.3,1.2,1v2.2c0,0.9-0.4,1.3-1.2,1.3h-95.8c-0.1,2.3-0.4,4.2-1.1,5.8
		c-0.7,1.6-1.6,2.9-2.9,3.9c-1.2,1-2.7,1.8-4.4,2.2c-1.7,0.5-3.5,0.7-5.6,0.7c-0.8,0-1.6,0-2.4-0.1c-0.8,0-1.6-0.1-2.5-0.3
		c0.1-0.8,0.1-1.5,0.2-2.2c0.1-0.7,0.1-1.3,0.2-2c0.8,0.1,1.7,0.1,2.5,0.2c0.8,0,1.6,0.1,2.3,0.1c1.2,0,2.4-0.1,3.5-0.3
		c1.1-0.2,2.1-0.6,2.9-1.3c0.8-0.6,1.5-1.5,2-2.6c0.5-1.1,0.8-2.5,0.8-4.3H640c-2.2,0-4-0.3-5.5-0.9c-1.5-0.6-2.7-1.4-3.7-2.4
		c-0.9-1-1.6-2.1-2-3.4c-0.4-1.3-0.6-2.5-0.6-3.8c0-1.7,0.3-3.3,0.8-4.8c0.5-1.5,1.3-2.8,2.3-4c1-1.1,2.2-2,3.5-2.7
		c1.4-0.7,2.9-1,4.5-1c1.6,0,3,0.3,4.2,0.8c1.2,0.5,2.3,1.2,3.2,2.2c0.9,0.9,1.5,2,2,3.3c0.5,1.3,0.7,2.7,0.7,4.3v8.1H745.2z
		 M645.1,725.2v-6.3c0-2.6-0.5-4.5-1.7-5.9c-1.1-1.4-2.6-2.1-4.5-2.1c-0.8,0-1.7,0.2-2.5,0.5c-0.8,0.3-1.5,0.8-2.1,1.5
		c-0.6,0.6-1.1,1.4-1.4,2.3c-0.4,0.9-0.5,1.9-0.5,3c0,1.3,0.2,2.4,0.6,3.3c0.4,0.9,1,1.6,1.6,2.2c0.7,0.6,1.5,1,2.4,1.2
		c0.9,0.3,1.8,0.4,2.8,0.4H645.1z"/>
	<path class="st0" d="M744.4,729.7c-0.8,0-1.3-0.3-1.3-1v-2.2c0-0.9,0.4-1.3,1.3-1.3h1.4c3.1,0,4.7-2.2,4.7-6.6
		c0-1.7,0.3-3.3,0.8-4.8c0.6-1.4,1.3-2.7,2.3-3.7c1-1,2.1-1.9,3.5-2.4c1.3-0.6,2.8-0.9,4.4-0.9c1.7,0,3.3,0.3,4.6,0.9
		c1.3,0.6,2.4,1.4,3.3,2.5c0.9,1.1,1.5,2.3,1.9,3.8c0.4,1.5,0.6,3.1,0.6,4.9c0,1.4-0.2,2.7-0.6,4c-0.4,1.3-1,2.5-1.8,3.5
		c-0.8,1-1.9,1.9-3.2,2.5c-1.3,0.6-2.9,0.9-4.9,0.9c-0.7,0-1.5,0-2.3-0.1c-0.8-0.1-1.6-0.3-2.5-0.6c-0.8-0.3-1.6-0.8-2.4-1.4
		c-0.8-0.6-1.5-1.5-2.2-2.5c-0.7,1.6-1.5,2.8-2.6,3.5c-1.1,0.7-2.4,1.1-3.9,1.1H744.4z M761.4,725.5c1.1,0,2-0.2,2.9-0.6
		c0.8-0.4,1.5-0.9,2-1.5c0.5-0.6,0.9-1.3,1.2-2.2c0.3-0.8,0.4-1.7,0.4-2.7c0-1.2-0.2-2.3-0.5-3.2c-0.4-1-0.9-1.8-1.5-2.4
		c-0.6-0.7-1.3-1.2-2.1-1.6c-0.8-0.4-1.6-0.6-2.4-0.6c-0.9,0-1.7,0.2-2.5,0.6c-0.8,0.4-1.5,0.9-2.1,1.6c-0.6,0.7-1.1,1.5-1.4,2.4
		c-0.4,1-0.5,2-0.5,3.2c0,1,0.1,1.9,0.4,2.7c0.3,0.8,0.7,1.5,1.2,2.2c0.5,0.6,1.2,1.1,2,1.5C759.2,725.4,760.2,725.5,761.4,725.5"/>
	<path class="st1" d="M397.3,295.7c-12.6,42.2-51,178.1-57.5,201.2c-0.6,2-2.4,3.3-4.4,3.3h-22.4c-2.6,0-4.6-2.1-4.6-4.7l2.4-149.2
		c0-1.5,0.8-2.9,2-3.8l77.6-52C393.9,288.2,398.5,291.6,397.3,295.7"/>
	<path class="st2" d="M298.3,495.7V341.2c0-1.7,0.9-3.2,2.3-4l30.6-17.4c1.8-1,2.7-3.2,2.2-5.2l-10.2-36.3c-0.6-2-2.4-3.4-4.4-3.4
		h-28.5c-2.1,0-4,1.5-4.5,3.6l-49.8,216.3c-0.7,2.9,1.5,5.6,4.5,5.6h53.3C296.3,500.3,298.3,498.2,298.3,495.7"/>
	<path class="st2" d="M278.4,265.3h47.1c3.1,0,5.3-3,4.4-6l-7.6-23.7c-0.6-1.8-2.2-3.1-4.1-3.2l-32.5-1.7c-2.2-0.1-4.1,1.3-4.7,3.4
		l-7,25.4C273.2,262.4,275.4,265.3,278.4,265.3"/>
	<path class="st3" d="M577.2,204.2L577.2,204.2c3.3-2.5,2-7.7-2.1-8.3c-14.5-2.1-41.6-5.1-70.4-5.4v0c-0.6,0-1.3,0-1.9,0
		c-0.6,0-1.3,0-1.9,0v0c-28.8,0.3-55.9,3.3-70.4,5.4c-4.1,0.6-5.4,5.8-2.1,8.3c1.5,1.1,2.2,3.1,1.7,4.9l-76.1,285.5
		c-0.8,2.9,1.4,5.8,4.4,5.8h142.4h3.8h141.8c3,0,5.2-2.9,4.5-5.8L575.5,209C575.1,207.2,575.7,205.3,577.2,204.2"/>
	<path class="st4" d="M608.4,295.7c12.6,42.2,51,178.1,57.5,201.2c0.6,2,2.4,3.3,4.4,3.3h22.4c2.6,0,4.6-2.1,4.6-4.7L695,346.4
		c0-1.5-0.8-2.9-2-3.8l-77.6-52C611.8,288.2,607.2,291.6,608.4,295.7"/>
	<path class="st5" d="M707.4,495.7V341.2c0-1.7-0.9-3.2-2.3-4l-30.6-17.4c-1.8-1-2.7-3.2-2.2-5.2l10.2-36.3c0.6-2,2.4-3.4,4.4-3.4
		h28.5c2.1,0,4,1.5,4.5,3.6l49.8,216.3c0.7,2.9-1.5,5.6-4.5,5.6H712C709.4,500.3,707.4,498.2,707.4,495.7"/>
	<path class="st5" d="M727.3,265.3h-47.1c-3.1,0-5.3-3-4.4-6l7.6-23.7c0.6-1.8,2.2-3.1,4.1-3.2l32.5-1.7c2.2-0.1,4.1,1.3,4.7,3.4
		l7,25.4C732.5,262.4,730.3,265.3,727.3,265.3"/>
	<path class="st3" d="M491.8,146.8l-6.2,27.6c-0.7,2.9,1.6,5.7,4.6,5.6c3.5-0.1,7-0.2,10.6-0.2h3.8c7.2,0,14,0.2,20.3,0.4
		c3.2,0.1,5.6-2.9,4.6-6l-8.4-26.6c-0.6-1.8-2.2-3.1-4.1-3.2l-20.5-1.3C494.4,143.1,492.3,144.6,491.8,146.8 M511.1,171l-7,0.3
		c-2.8,0.1-5.1-2.3-4.8-5.1l0.9-8.5c0.2-2.2,2-4,4.3-4.1l5.1-0.3c2.4-0.2,4.6,1.6,4.9,4l1.1,8.5C515.7,168.5,513.7,170.8,511.1,171"
		/>
	<path class="st3" d="M528.7,141.4l8.6,36.4c0.5,1.9,2.1,3.4,4.1,3.5c17.3,1.3,29.9,3.4,37.1,4.8c3.3,0.6,6.1-2.4,5.3-5.6L568,115.5
		c-0.9-3.8-6-4.8-8.2-1.6l-0.8,1.2c-2,2.9-6.5,2.5-8-0.7l-2.8-6.1c-1.4-3-5.5-3.6-7.7-1.1l-4.1,4.7c-2.1,2.5-6.1,2-7.6-0.9l-3.9-7.7
		c-1.6-3.2-6-3.4-8-0.4l-6,9.1c-1.8,2.7-5.7,2.8-7.6,0.2l-4.7-6.4c-1.9-2.6-5.8-2.5-7.6,0.2l-6.2,9.3c-1.7,2.5-5.3,2.8-7.3,0.5
		l-6.8-7.7c-2.2-2.5-6.3-1.9-7.7,1.2l-3.9,8.8c-1.3,3-5.4,3.7-7.6,1.3l-3.9-4.2c-2.4-2.7-6.9-1.6-7.8,1.9l-17.6,62.6
		c-0.9,3.2,1.8,6.3,5.1,5.8c8.3-1.2,23.5-3.1,44.4-4.2c2-0.1,3.8-1.5,4.2-3.5l9.5-38.4c0.5-2.2,2.6-3.6,4.8-3.5l34,2.3
		C526.5,138,528.2,139.4,528.7,141.4"/>
	<path class="st1" d="M252.1,166.7c50.6-4.1,79.8,49.2,79.8,52.5c0,1.8-23.6-37.9-83.1-23c-17,4.3-30.3,3.9-31.8-9.9
		C215.5,171.7,234.3,168.2,252.1,166.7"/>
	<path class="st5" d="M342.7,149.5c51.2,46.2,25.9,124.8,22.5,127.9c-1.7,1.6,15.5-58.7-54.7-103.6c-20.1-12.9-32.1-26.3-19.9-40.6
		C303.7,118,324.7,133.3,342.7,149.5"/>
	<path class="st4" d="M390.3,143.5c17.3,29.2-6,62.4-8,63.4c-1.1,0.5,15.8-25.3-10.6-56.6c-7.6-9-11.3-17.1-3.4-22
		C376.6,123,384.3,133.2,390.3,143.5"/>
	<path class="st3" d="M746.1,172.2c-50.7,1.4-74.1,57.5-73.8,60.8c0.2,1.8,19.4-40.2,80.1-31.8c17.4,2.4,30.6,0.6,30.5-13.2
		C783,173.2,763.9,171.7,746.1,172.2"/>
	<path class="st6" d="M654.2,164.8c-45.9,51.5-12.3,126.9-8.7,129.6c1.9,1.4-21.7-56.7,43.3-108.8c18.6-14.9,29.1-29.6,15.4-42.5
		C689.6,129.3,670.3,146.7,654.2,164.8"/>
	<path class="st2" d="M606.2,163.9c-14.1,30.9,12.7,61.4,14.8,62.2c1.1,0.4-18.4-23.5,4.5-57.4c6.6-9.7,9.4-18.2,1.1-22.2
		C617.6,142,611.1,153,606.2,163.9"/>
	<path class="st7" d="M307.2,589.1l8.5,13.6c2.3,3.8,3.5,7.7,3.5,11.6c0,5.1-1.7,9.2-5.2,12.6c-3.5,3.3-7.7,5-12.8,5
		c-6.5,0-11.4-2.8-14.8-8.3l-15-24.6v14.8c0,5.1-1.7,9.3-5,12.8c-3.3,3.5-7.5,5.3-12.6,5.3c-6.2,0-10.8-2.2-14-6.6
		c-2.9-3.9-4.3-9-4.3-15.3v-67.1c0-13.8,7.4-20.7,22.2-20.7h22.8c7.5,0,14.5,2.2,20.9,6.5c6.4,4.3,11.1,10,14.1,16.9
		c2.2,5.2,3.3,10.4,3.3,15.7C318.9,571.1,315,580.4,307.2,589.1"/>
	<path class="st4" d="M367.3,543.6v67.5c0,5.8-1.5,10.7-4.5,14.4c-3.2,4.1-7.7,6.2-13.5,6.2c-5.3,0-9.7-1.9-13.3-5.8
		c-3-3.2-4.5-8.2-4.5-14.8v-67.5c0-7.5,1.5-13,4.5-16.4c3.5-3.9,7.9-5.8,13.3-5.8c5.4,0,9.9,1.9,13.3,5.7
		C365.7,530.6,367.3,536.1,367.3,543.6"/>
	<path class="st6" d="M437.1,585.7v24.1c0,6.1-1,10.6-2.9,13.6c-3.6,5.6-8.7,8.5-15.3,8.5c-6.4,0-11.4-2.8-14.9-8.3
		c-2-3.1-3-7.7-3-13.9v-24l-24.4-35.9c-2.4-3.5-3.6-7.2-3.6-11c0-4,1.3-7.6,4-10.8c3.6-4.4,8.2-6.5,13.9-6.5
		c6.6,0,11.9,2.8,15.7,8.5l12.7,18.6l13.3-19.1c3.7-5.3,8.8-8,15.2-8c4.9,0,9.1,1.7,12.6,5.2c3.5,3.5,5.3,7.7,5.3,12.6
		c0,3.7-1.1,7.1-3.4,10.4L437.1,585.7z"/>
	<path class="st1" d="M493.2,616.9c-1.7,4-3.5,7-5.3,9c-3.6,3.9-8,5.9-13.2,5.9c-6.3,0-11.2-2.6-14.8-7.7c-2.1-3-3.1-6.4-3.1-10.2
		c0-3.1,0.7-6.3,2.2-9.5l34.1-72.5c3.3-7.1,8.8-10.6,16.5-10.6c7.8,0,13.4,3.6,16.8,10.9l34.4,73c1.4,2.9,2.1,5.8,2.1,8.7
		c0,4.3-1.4,8-4.1,11.3c-3.6,4.3-8.2,6.5-13.9,6.5c-4.6,0-8.5-1.4-11.6-4.3c-2.3-2.1-4.6-5.7-6.9-10.6H493.2z"/>
	<path class="st4" d="M589.7,522.2h21.9c16,0,29.2,4.6,39.5,13.7c12.1,10.7,18.1,24.2,18.1,40.6c0,8-1.8,15.7-5.3,23.1
		c-6.1,12.8-15.5,21.8-28.4,27.1c-7,2.9-16.3,4.3-28,4.3h-15.2c-7.3,0-12.4-1-15.2-2.9c-3.7-2.5-6.1-5.6-7.2-9.4
		c-0.6-2.3-1-6.4-1-12.3v-59.8c0-5.2,0.1-8.3,0.2-9.5c0.4-3.4,1.6-6.2,3.7-8.5C576.6,524.3,582.2,522.2,589.7,522.2"/>
	<path class="st7" d="M716,593.1v15.6c0,4.4-0.1,7-0.2,8c-0.4,2.6-1.3,5-2.8,7.3c-3.5,5.3-8.4,7.9-14.8,7.9
		c-6.5,0-11.5-2.7-14.9-8.1c-2.1-3.3-3.2-8.3-3.2-15.2V543c0-6.5,1.3-11.4,3.8-14.7c3.6-4.6,8.3-6.9,14.2-6.9c6,0,10.8,2.3,14.5,7
		c1.7,2.2,2.7,4.6,3.1,7.3c0.2,1,0.2,3.7,0.2,8.1v15.5h22.2v-15.1c0-7.4,1.2-12.7,3.7-16c3.4-4.6,8.1-6.9,14-6.9
		c6.2,0,10.9,2.2,14,6.5c2.8,3.8,4.1,8.9,4.1,15.2v65.9c0,6.3-1,11-3,14.3c-3.5,5.7-8.5,8.6-15.2,8.6c-6,0-10.8-2.4-14.3-7.2
		c-2.3-3.1-3.4-8.3-3.4-15.8v-15.8H716z"/>
	<path class="st0" d="M249.3,656.5l-2.8,1.7c-0.5-0.9-1-1.5-1.5-1.8c-0.5-0.3-1.2-0.5-1.9-0.5c-1,0-1.8,0.3-2.4,0.8
		c-0.6,0.5-1,1.2-1,2.1c0,1.1,0.8,2.1,2.5,2.7l2.3,0.9c1.9,0.8,3.3,1.7,4.1,2.8c0.9,1.1,1.3,2.4,1.3,4c0,2.1-0.7,3.9-2.1,5.3
		c-1.4,1.4-3.2,2.1-5.4,2.1c-2,0-3.7-0.6-5-1.8c-1.3-1.2-2.1-2.9-2.4-5.1l3.6-0.8c0.2,1.4,0.4,2.3,0.8,2.8c0.7,1,1.8,1.5,3.2,1.5
		c1.1,0,2-0.4,2.7-1.1c0.7-0.7,1.1-1.7,1.1-2.8c0-0.5-0.1-0.9-0.2-1.2c-0.1-0.4-0.3-0.7-0.6-1c-0.3-0.3-0.6-0.6-1-0.9
		c-0.4-0.3-0.9-0.5-1.5-0.8l-2.2-0.9c-3.2-1.3-4.8-3.3-4.8-5.9c0-1.8,0.7-3.2,2-4.4c1.3-1.2,3-1.8,5-1.8
		C245.7,652.6,247.8,653.9,249.3,656.5"/>
	<polygon class="st0" points="349.8,656.3 340.5,656.3 340.5,661.9 349.5,661.9 349.5,665.2 340.5,665.2 340.5,673 349.8,673 
		349.8,676.3 337,676.3 337,653 349.8,653 	"/>
	<path class="st0" d="M450.9,670.6h-10l-2.6,5.7h-3.8l11.5-24.7l11.1,24.7h-3.8L450.9,670.6z M449.4,667.3l-3.5-7.9l-3.6,7.9H449.4z
		"/>
	<path class="st0" d="M556,656.5l-2.8,1.7c-0.5-0.9-1-1.5-1.5-1.8c-0.5-0.3-1.2-0.5-1.9-0.5c-1,0-1.8,0.3-2.4,0.8
		c-0.6,0.5-1,1.2-1,2.1c0,1.1,0.8,2.1,2.5,2.7l2.3,0.9c1.9,0.8,3.3,1.7,4.1,2.8c0.9,1.1,1.3,2.4,1.3,4c0,2.1-0.7,3.9-2.1,5.3
		c-1.4,1.4-3.2,2.1-5.4,2.1c-2,0-3.7-0.6-5-1.8c-1.3-1.2-2.1-2.9-2.4-5.1l3.6-0.8c0.2,1.4,0.4,2.3,0.8,2.8c0.7,1,1.8,1.5,3.2,1.5
		c1.1,0,2-0.4,2.7-1.1c0.7-0.7,1.1-1.7,1.1-2.8c0-0.5-0.1-0.9-0.2-1.2c-0.1-0.4-0.3-0.7-0.6-1c-0.3-0.3-0.6-0.6-1-0.9
		c-0.4-0.3-0.9-0.5-1.5-0.8l-2.2-0.9c-3.2-1.3-4.8-3.3-4.8-5.9c0-1.8,0.7-3.2,2-4.4c1.3-1.2,3-1.8,5-1.8
		C552.4,652.6,554.5,653.9,556,656.5"/>
	<path class="st0" d="M642.5,664.6c0-3.3,1.2-6.1,3.6-8.4c2.4-2.4,5.3-3.5,8.6-3.5c3.3,0,6.2,1.2,8.5,3.6c2.4,2.4,3.6,5.2,3.6,8.6
		c0,3.3-1.2,6.2-3.6,8.5c-2.4,2.3-5.3,3.5-8.7,3.5c-3,0-5.7-1-8.1-3.1C643.8,671.3,642.5,668.3,642.5,664.6 M646,664.6
		c0,2.6,0.9,4.7,2.6,6.3c1.7,1.7,3.7,2.5,6,2.5c2.4,0,4.5-0.8,6.2-2.5c1.7-1.7,2.5-3.8,2.5-6.2c0-2.5-0.8-4.6-2.5-6.2
		c-1.6-1.7-3.7-2.5-6.1-2.5c-2.4,0-4.5,0.8-6.1,2.5C646.9,660.1,646,662.1,646,664.6"/>
	<polygon class="st0" points="754,676.3 754,651.4 771,669.2 771,653 774.5,653 774.5,677.7 757.5,660 757.5,676.3 	"/>
	<path class="st0" d="M375.8,755.4c-2.3,0-6,6.7-7,8.4c-2.7,4.8-4.5,10-6.4,15.1c-1.8,4.7-4.1,9.1-6.2,13.7
		c-3.2,6.8-6.4,13.5-9.7,20.3c-5.9,12-10.7,22.5-14.3,31.5c-2.1,5.3-4.1,10.8-5.3,16.4c-0.9,4.1-0.8,8.4,0.1,12.4
		c1.2,5.2,5.2,9.7,11,8.4c0.8-0.3,1.2-0.9,1.2-1.8c0-0.9-0.8-9.9,4.8-27.9c0.8-2.7,2.2-5.5,3.7-8.7c1.8-4.5,4.1-9.7,6.9-15.7
		c2.8-6,5.7-12.4,8.7-19.1c3-6.7,3.9-7,6.5-13.3c2.6-6.3,4.2-9.2,6.1-14.3c2.1-5.8,7-13.3,6.5-19.4
		C382.1,759,378.5,755.5,375.8,755.4"/>
	<path class="st0" d="M578.9,796.8c0.3-2.1,0.1-4-0.4-5.5c-0.5-1.6-1.3-2.7-2.4-3.4c-1.1-0.7-2.2-0.4-3.6,0.8
		c-1.1,1.2-2.6,2.9-4.5,5c-2,2.2-4.2,4.5-6.7,7.1c-2.5,2.6-5.1,5.2-7.7,8c-2.6,2.8-5.1,5.3-7.5,7.6c-2.4,2.3-4.4,4.3-6.2,5.9
		c-1.8,1.6-3,2.6-3.7,2.9c-0.7,0.3-0.7-0.6-0.1-2.5c0.6-1.9,1.6-4.5,3.1-7.7c1.4-3.2,3.3-6.9,5.6-11.1c2.3-4.2,4.8-8.3,7.6-12.4
		c2.8-4.1,5-6.8,6.8-8.1c1.8-1.3,3.2-1.8,4.3-1.4c1.1,0.4,2,1.4,2.6,2.9c0.6,1.5,1.1,3,1.5,4.4c0.1,0.7,0.5,0.9,1.2,0.6
		c0.7-0.3,0.9-0.8,0.8-1.6c0-1.2-0.2-2.5-0.6-4.1c-0.4-1.5-1.1-2.9-2-4.2c-0.9-1.3-2.1-2.2-3.6-2.9c-1.4-0.7-3.4-0.8-5.7-0.4
		c-2.2,0.4-4.6,1.5-7.1,3.2c-2.5,1.7-5,3.9-7.6,6.4c-2.1,2.1-4.1,4.4-6,6.9c-0.5,0.5-1.2,1.1-1.9,1.7c-2.6,2.4-5.3,4.9-8.2,7.5
		c-3.4,3.2-7.2,6.6-11.5,10.3c1.2-2.2,2.2-4.5,3.2-6.7c0.8-1.8,1.5-3.8,2.3-5.8c0.7-2,1.2-3.8,1.3-5.2c0.1-1.7-0.2-3.2-1-4.3
		c-0.8-1.2-1.8-2-3-2.6c-1.2-0.5-2.3-0.7-3.4-0.6c-1.1,0.1-1.8,0.7-2.2,1.8c-1.2,1.3-2.8,3.1-4.8,5.2c-2,2.2-4.3,4.5-6.7,7.1
		c-2.4,2.6-4.9,5.2-7.5,7.8c-2.6,2.6-5,5.1-7.2,7.3c-2.2,2.2-4.2,4.1-5.9,5.6c-1.7,1.5-2.9,2.4-3.6,2.7c-0.7,0.3-0.7-0.6-0.1-2.5
		c0.6-1.9,1.6-4.5,3.1-7.7c1.4-3.2,3.3-6.9,5.6-11.1c2.3-4.2,4.8-8.3,7.6-12.4c2.8-4.1,5-6.8,6.8-8.1c1.8-1.3,3.2-1.8,4.3-1.4
		c1.1,0.4,2,1.4,2.6,2.9c0.6,1.5,1.1,3,1.5,4.4c0.1,0.7,0.5,0.9,1.2,0.6c0.7-0.3,0.9-0.8,0.8-1.6c0-1.2-0.2-2.5-0.6-4.1
		c-0.4-1.5-1.1-2.9-2-4.2c-0.9-1.3-2.1-2.2-3.6-2.9c-1.5-0.7-3.4-0.8-5.7-0.4c-2.2,0.4-4.6,1.5-7.1,3.2c-2.5,1.7-5,3.9-7.6,6.4
		c-2.6,2.6-5.1,5.5-7.5,8.7c-0.8,1.1-1.6,2.3-2.4,3.4c-0.8,0.8-1.6,1.6-2.3,2.3c-3.1,3.1-6,6-8.8,8.6c-2.8,2.6-5.3,4.9-7.6,6.9
		c-2.3,2-4.3,3.4-6,4.3c0.5-1.4,1.7-4,3.5-7.6c1.8-3.6,3.8-7.4,6-11.4c2.2-4,4.5-7.5,6.9-10.8c2.4-3.2,4.4-5.2,6.1-6
		c0.8-0.8,1.2-1.8,1.3-3.1c0.1-1.3-0.2-2.5-0.8-3.7c-0.6-1.2-1.5-2.2-2.8-3.1c-1.3-0.9-2.9-1.2-5-1.1c-3.4,0.3-7,1.4-10.6,3.3
		c-3.6,1.9-7.2,4.4-10.8,7.6c-3.6,3.2-7,6.8-10.3,10.8c-3.3,4-6.3,8.2-9.1,12.6c0.8-2.5,1.9-5.1,3.3-7.7c1.4-2.6,2.8-5.1,4.3-7.5
		c1.5-2.4,2.9-4.5,4.1-6.3c1.3-1.8,2.1-3.2,2.7-4c0.5-0.8,0.5-1.9-0.1-3.3c-0.6-1.4-1.6-2.6-3.1-3.6c-1.5-1-3.2-1.6-5.2-1.9
		c-2-0.3-4.2,0.3-6.4,1.6c-4.7,2.6-10.2,7-16.3,12.9c-6.1,6-12.7,13.7-19.9,23.2c1.2-3,2.4-6,3.6-9c1.2-3,2.2-5.7,3-8.2
		c0.8-2.5,1.3-4.7,1.5-6.6c0.2-1.9,0-3.3-0.7-4.2c-0.8-0.9-1.7-1.5-2.9-1.8c-1.1-0.3-2.2-0.3-3.2-0.1c-1,0.2-1.8,0.6-2.4,1.3
		c-0.6,0.7-0.8,1.4-0.7,2.2c0,0.9-1.3,4-3.9,9.3c-2.6,5.3-6.1,12.5-10.6,21.7c-2.8,5.8-4,10.3-3.8,13.5c0.3,3.2,1.2,5.4,2.8,6.6
		c1.6,1.2,3.4,1.5,5.4,0.9c2-0.6,3.5-1.8,4.4-3.7c5-7.4,9.7-13.8,14.1-19.3c4.4-5.5,8.3-10,11.8-13.7c4-4.3,7.6-8,10.9-11.1
		c-5.5,7.9-8.8,14.8-9.7,20.8c-0.9,5.9-0.7,10.6,0.7,13.9c1.4,3.4,3.3,5.4,5.8,6.2c2.5,0.8,4.4,0,5.7-2.4c1.8-3.2,4.1-6.6,6.6-10.4
		c2.6-3.8,5.4-7.6,8.4-11.6c3-4,6.3-7.8,9.7-11.7c3.4-3.8,6.8-7.4,10.3-10.9c-2.8,3.7-5.5,7.6-8.3,11.9c-2.8,4.2-5.3,8.5-7.5,12.7
		c-2.2,4.3-4.1,8.4-5.4,12.5c-1.4,4-2.1,7.5-2.2,10.6c-0.1,3,0.7,5.4,2.3,7.1c1.6,1.7,4.3,2.5,8.1,2.4c1.3,0,2.9-0.7,4.8-2.1
		c1.9-1.4,3.9-3.1,6-5.1c2.1-2,4.2-4.3,6.4-6.7c1.6-1.8,3-3.5,4.4-5.1c-0.2,1-0.4,2.1-0.6,3c-0.3,1.7,0.1,3.6,1.1,5.5
		c1,2,2.4,3.6,4.1,4.8c1.8,1.3,3.9,1.9,6.2,1.9c2.4,0,4.9-1.1,7.5-3.4c1.6-1.3,3.3-3,5.2-5.1c1.9-2.1,3.9-4.4,5.9-6.9
		c2-2.5,4.1-5.1,6.1-7.7c2-2.6,3.9-5.1,5.6-7.5c-3.3,7-5.2,12.5-5.7,16.5c-0.5,4-0.3,7,0.8,8.8c1.1,1.8,2.5,2.8,4.4,3
		c1.9,0.1,3.6-0.2,5-1c2.9-1.4,5.9-3.8,9-7.1c1.5-1.6,3-3.3,4.5-5.1c-0.3,1.1-0.5,2.2-0.6,3.3c-0.3,1.7,0.1,3.6,1.1,5.5
		c1,2,2.4,3.6,4.1,4.8c1.8,1.3,3.9,1.9,6.2,1.9c2.4,0,4.9-1.1,7.5-3.4c4.2-3.4,7.9-7.3,11.1-11.7c3.2-4.3,6.6-8.4,10.3-12.1
		c-3.4,6.3-7.1,13.2-11.2,20.6c-4,7.4-7.8,14.6-11.5,21.5c-3.6,7-6.8,13.3-9.5,19.1c-2.7,5.7-4.4,10.1-5.2,13.1
		c-1.1,4.2-1.2,7.4-0.5,9.5c0.7,2.1,1.8,3.6,3.4,4.3c1.5,0.8,3.1,1.1,4.7,0.8c1.6-0.3,2.9-0.7,3.7-1.4c7.9-21.7,15.3-40.5,22.2-56.1
		c6.9-15.7,13.1-28.8,18.7-39.3C577.8,800.8,578.6,799,578.9,796.8"/>
	<path class="st0" d="M606,767.6c1.3,0.8,2.7,0.9,4.3,0.2c1.5-0.7,2.8-1.8,3.9-3.6c1.1-1.7,1.5-3.4,1.4-5.1c-0.1-1.7-0.8-3-2-3.8
		c-1.3-0.7-2.7-0.7-4.2,0c-1.5,0.7-2.8,1.8-3.9,3.6c-1.1,1.7-1.5,3.4-1.4,5.1C604.1,765.7,604.8,766.9,606,767.6"/>
	<path class="st0" d="M720.4,789.3c-2.4,2.9-5.3,6.3-8.9,10.2c-3.6,3.9-7.2,7.6-10.9,11.3c-3.7,3.6-7.2,6.8-10.7,9.5
		c-3.4,2.7-6.2,4.3-8.3,4.8c-3,0.7-5-0.8-5.9-4.2c-0.9-3.5-0.3-8.3,2-14.3c1.2,1.1,2.7,1.6,4.5,1.6c1.8,0,3.9-0.4,6-1.3
		c2.2-0.9,4.3-2.1,6.5-3.7c2.2-1.6,4.2-3.4,6-5.5c3.4-4,5.6-7.9,6.5-12c0.9-4,0.5-7.1-1.4-9.4c-1.2-1.4-3.1-2.4-5.6-2.8
		c-2.6-0.4-5.5,0.1-8.9,1.5c-3.4,1.4-7,3.8-10.8,7.2c-3.8,3.4-7.5,8.3-11.1,14.6c-0.6,1-1.1,2-1.6,3c-0.4,0.4-0.7,0.8-1.1,1.2
		c-3.1,3.3-6.1,6.4-9,9.3c-2.9,2.9-5.6,5.4-8,7.5c-2.4,2.1-4.5,3.6-6.2,4.5c0.5-1.4,1.5-3.8,3-6.9c1.4-3.2,3.2-6.5,5.1-10.1
		c2-3.6,4.1-7,6.3-10.3c2.2-3.3,4.5-5.9,6.7-7.7c0.4-0.4,0.6-1.4,0.6-2.9c0-1.5-0.3-3.1-1-4.7c-0.7-1.6-1.6-3.1-2.9-4.2
		c-1.3-1.2-2.9-1.6-5-1.2c-2.1,0.4-4.4,1.3-6.9,2.7c-2.5,1.4-5.1,3.2-7.7,5.3c-2.6,2.2-5.3,4.7-8.1,7.5c-2.8,2.8-5.4,5.8-7.9,9
		c1.3-3.4,2.2-6.5,2.8-9.2c0.5-2.7,0.3-4.6-0.6-5.6c-0.8-0.9-1.7-1.5-2.9-1.8c-1.1-0.3-2.2-0.3-3.2-0.1c-1,0.2-1.8,0.6-2.4,1.3
		c-0.6,0.7-0.8,1.4-0.7,2.2c-0.1,0.9-1.5,4-4.1,9.3c-0.9,1.9-1.9,4-3.1,6.4c-2.2,2.2-4.3,4.5-6.6,6.7c-5.6,5.4-10.9,10-15.9,13.8
		c1.4-3,3.1-6.4,4.8-10.1c1.8-3.7,3.4-7.3,4.7-10.9c1.4-3.6,2.3-6.8,2.8-9.9c0.5-3,0-5.3-1.3-6.9c-0.8-0.9-1.7-1.5-2.8-1.8
		c-1.1-0.3-2.1-0.3-3.1-0.1c-1,0.2-1.8,0.6-2.5,1.3c-0.7,0.7-0.9,1.4-0.8,2.2c0,0.9-1.3,4-3.9,9.3c-2.6,5.3-6,12.5-10.4,21.7
		c-2.8,5.8-4.3,10.4-4.6,13.9c-0.3,3.5,0.2,6,1.6,7.4c1.4,1.4,3.5,1.9,6.2,1.5c2.8-0.5,5.9-1.8,9.3-4.1c2.2-1.4,4.5-3.4,6.9-5.7
		c1.8-1.8,3.5-3.7,5.1-5.5c-0.7,2.3-1,4.4-0.9,6c0.2,3.2,1.1,5.4,2.7,6.6c1.6,1.2,3.4,1.5,5.5,0.9c2.1-0.6,3.6-1.7,4.5-3.5
		c-0.1-1.1-0.1-2.2,0.2-3.4c0.3-1.2,0.5-2,0.8-2.4c1.8-3.2,4.1-6.6,6.6-10.4c2.6-3.8,5.4-7.6,8.5-11.6c3.1-4,6.3-7.8,9.7-11.7
		c3.4-3.8,6.8-7.4,10.4-10.9c-2.9,3.7-5.7,7.7-8.5,12c-2.8,4.3-5.2,8.6-7.4,12.8c-2.2,4.3-4,8.4-5.4,12.4c-1.5,4-2.2,7.4-2.2,10.5
		c0,3,0.8,5.4,2.4,7.2c1.6,1.8,4.3,2.5,8.1,2.3c2.4-0.1,5.2-1.6,8.5-4.4c3.3-2.8,6.5-6,9.6-9.5c2.7-3,5.1-5.9,7.3-8.8
		c-0.3,2.3-0.3,4.4-0.2,6.4c0.3,3.9,1.5,7.1,3.6,9.8c2,2.6,5,4.3,8.8,4.9c4,0.7,7.9-0.1,11.9-2.4c4-2.2,7.7-5.1,11.2-8.6
		c3.5-3.5,6.6-7.1,9.2-10.8c2.6-3.7,4.5-6.6,5.7-8.7c1.2-2.1,2.4-4.3,3.6-6.6c1.2-2.3,2.2-4.4,3.2-6.4c0.9-2,1.5-3.6,1.9-4.8
		C721,790,720.9,789.3,720.4,789.3 M685.8,791.7c2.9-3.7,5.4-6.5,7.5-8.4c2.1-1.9,3.9-3.2,5.4-4c1.5-0.7,2.7-0.9,3.5-0.6
		c0.8,0.3,1.3,0.9,1.4,1.7c0.1,1.5-0.3,3.1-1.2,4.8c-0.9,1.8-2.1,3.6-3.7,5.3c-1.5,1.8-3.2,3.4-5.1,4.9c-1.9,1.5-3.8,2.7-5.5,3.7
		c-1.8,0.9-3.3,1.5-4.6,1.7c-1.3,0.2-2.2-0.2-2.6-1.3C682.3,796.8,684,794.2,685.8,791.7"/>
</g>
</svg>
